<svg enable-background="new 0 0 24 24" viewBox="0 0 24 24" xmlns="http://www.w3.org/2000/svg"><path d="m12.8 13.3c-.3 0-.5 0-.8 0s-.6 0-.8 0c-2.3-.1-4.1-.4-5.4-.9-.6-.2-1.2-.5-1.6-.7v2.2.2.2.4c.9.9 3.8 1.7 7.8 1.7s6.9-.9 7.8-1.8v-.4-.2-.2-2.2c-.4.3-1 .5-1.6.7-1.3.6-3.1.9-5.4 1z"/><path d="m4.2 7.6v2.2.2.2.4c.8.9 3.5 1.7 6.9 1.8h.1.3.4.4.3.1c3.6-.1 6.1-.9 6.9-1.8v-.4-.3-.1-2.2c-1.5 1.1-4.7 1.6-7.8 1.6s-6.1-.6-7.6-1.6z"/><path d="m19.8 5.6c-.4-1.4-3.1-2.7-7.8-2.7s-7.4 1.3-7.8 2.7v.2.2.6c.9.8 3.9 1.7 7.8 1.7s6.9-.9 7.8-1.8v-.6z"/><path d="m4.2 15.7v2.6.1c.4 1.5 3.6 2.7 7.8 2.7 4 0 7.4-1.1 7.8-2.7 0 0 0-.1 0-.2v-2.6c-1.3.9-3.9 1.6-7.8 1.6-3.8.1-6.5-.6-7.8-1.5z"/></svg>