<svg id="Layer_1" viewBox="0 0 194 219" xmlns="http://www.w3.org/2000/svg">
  <g fill="#fff">
    <polygon points="98 12.4 71 28.3 44 44.1 17 60 17 91.8 17 123.6 17 155.4 44 171.3 44 139.5 44 107.7 44 75.9 71 60 71 91.8 71 91.8 71 123.6 98 107.7 98 107.7 125 91.8 125 60 152 44.1 125 28.3 98 12.4"/>
    <polygon points="152 44.1 152 75.9 152 107.7 125 123.6 152 139.5 152 171.3 179 155.4 179 123.6 179 91.8 179 60 152 44.1"/>
    <polygon points="98 139.5 71 155.4 71 155.4 71 187.2 98 203.1 125 187.2 125 155.4 98 139.5"/>
  </g>
</svg>