<svg enable-background="new 0 0 1000 1000" viewBox="0 0 1000 1000" xmlns="http://www.w3.org/2000/svg"><path d="m4486.6 4986.6c-3.9-9.8-64.4-246-130.8-525.1l-123-511.5-244-62.5-244-64.4-89.8 95.7c-48.8 52.7-216.7 228.4-374.8 392.4l-285 296.7-437.3-253.8c-240.1-138.6-439.2-259.6-443.1-269.4s60.5-242.1 140.6-517.3c82-275.3 148.4-511.5 148.4-525.1 0-33.2-296.7-326-329.9-326-13.7 0-253.8 66.4-533 148.4-277.2 82-509.5 144.5-513.4 140.6-5.9-3.9-123-205-263.5-447.1l-254-437.4 113.2-107.4c60.5-58.6 242.1-232.3 400.2-384.6l288.9-279.2-54.7-224.5-54.6-224.5-68.3-19.5c-37.1-9.8-251.8-62.5-478.3-117.1-226.5-54.7-443.2-107.4-482.2-119.1l-74.2-19.5v-513.5-513.4l548.6-134.7c462.7-113.2 552.5-140.6 566.1-173.8 7.8-21.5 37.1-117.1 64.4-214.7l50.8-175.7-411.9-400.2-410-400.2 247.9-429.5c134.7-236.2 253.8-435.3 259.6-445.1 7.8-7.8 255.7 56.6 548.6 142.5 294.8 85.9 544.7 156.2 556.4 156.2s83.9-64.4 162-142.5l140.6-142.5-156.2-529c-85.9-290.9-156.2-540.8-156.2-556.4 0-21.5 669.6-427.5 845.3-511.5 31.2-17.6 91.8 37.1 441.2 398.2l404.1 417.8 164-44.9c91.8-25.4 183.5-52.7 205-60.5 33.2-11.7 60.5-101.5 175.7-574l136.7-558.3h517.3 519.3l134.7 552.5c74.2 302.6 140.6 556.4 146.4 564.2s99.6 37.1 208.9 66.4l199.1 50.8 269.4-281.1c148.4-152.3 326-337.7 394.3-410 68.3-74.2 134.7-132.8 144.5-132.8 19.5 0 802.4 449 855.1 492 29.3 23.4 19.5 74.2-128.8 572l-162 546.6 138.6 140.6c76.1 78.1 150.3 142.5 164 142.5s263.5-70.3 556.4-156.2 536.9-150.3 544.6-140.6c7.8 7.8 126.9 207 263.5 443.2l247.9 429.5-410 400.2-410 400.2 60.5 212.8 60.5 214.7 552.5 134.7 550.6 134.7v515.4c0 283.1-1.9 515.4-3.9 515.4-3.9 2-247.9 60.5-542.7 134.7-499.8 123-538.8 134.7-550.5 179.6-7.8 25.4-37.1 126.9-62.5 222.5l-48.8 175.7 402.2 392.4 404.1 390.4-242.1 419.7c-132.8 230.4-251.8 429.5-263.6 443.1-19.5 21.5-115.2 0-529-121-279.2-82-519.3-146.4-534.9-146.4-15.6 2-97.6 74.2-179.6 162l-150.3 158.1 154.2 527.1c85.9 290.9 148.4 529 140.6 532.9s-206.9 119.1-443.2 257.7l-429.5 251.8-380.7-392.4-382.6-392.4-230.4 60.5c-126.9 33.2-234.3 64.4-238.2 68.3-5.9 5.9-206.9 806.3-251.8 1005.4l-9.8 43h-517.3c-283 .1-519.2-5.7-523.1-13.5zm1085.4-3959.1c1132.3-788.7 1202.6-841.4 1169.4-870.7-44.9-42.9-2735-2047.8-2746.7-2047.8-5.8 0-9.8 905.8-9.8 2010.8v2012.7l191.3-132.8c103.4-72.2 732-509.5 1395.8-972.2z" fill="#87909c" transform="matrix(.1 0 0 -.1 0 511)"/></svg>