<svg id="Layer_1" xmlns="http://www.w3.org/2000/svg" viewBox="0 0 750.1 187.1">
  <defs>
    <style>.cls-1{fill:#3d90ce;}</style>
  </defs>
  <polygon class="cls-1" points="309.9 46.7 291.9 46.7 260.9 95.4 260.9 46.6 243.9 46.6 243.9 142 260.9 142 260.9 121.4 272.2 104 292.6 142 312 142 281.7 90.8 309.9 46.7"/>
  <path class="cls-1" d="M363,46.7H337.4c-9.4,0-17,6.1-17,13.6v68.1c0,7.5,7.6,13.6,17,13.6H363c9.3,0,17-6.1,17-13.6V60.3C380,52.8,372.4,46.7,363,46.7Zm0,81.7H337.4V60.3H363Z"/>
  <polygon class="cls-1" points="439.5 102.7 415.4 46.6 397 46.6 397 142 414 142 414 79.6 441.5 142 456.5 142 456.5 46.6 439.5 46.6 439.5 102.7"/>
  <polygon class="cls-1" points="469.3 60.3 490.6 60.3 490.6 142 507.6 142 507.6 60.3 528.8 60.3 528.8 46.6 469.3 46.6 469.3 60.3"/>
  <polygon class="cls-1" points="541.6 142 592.6 142 592.6 128.4 558.6 128.4 558.6 98.4 584.1 98.4 584.1 84.8 558.6 84.8 558.6 60.2 592.6 60.2 592.6 46.6 541.6 46.6 541.6 142"/>
  <polygon class="cls-1" points="649.9 46.6 649.9 102.7 625.8 46.6 607.4 46.6 607.4 142 624.4 142 624.4 79.6 651.9 142 666.9 142 666.9 46.6 649.9 46.6"/>
  <path class="cls-1" d="M724.4,46.6H703L677.5,142h18l3.4-13.6h29.6l3.4,13.6h18Zm-22.1,68.2L714,70.4l11.1,44.4Z"/>
  <polygon class="cls-1"
           points="81 0 54 15.6 27 31.2 0 46.8 0 77.9 0 109.1 0 140.3 27 155.9 27 124.7 27 93.5 27 62.4 54 46.8 54 77.9 54 77.9 54 109.1 81 93.5 81 93.5 108 77.9 108 46.8 135 31.2 108 15.6 81 0"/>
  <polygon class="cls-1" points="135 62.4 135 93.5 108 109.1 135 124.7 135 155.9 162 140.3 162 109.1 162 77.9 162 46.8 135 31.2 135 62.4"/>
  <polygon class="cls-1" points="81 124.7 54 140.3 54 140.3 54 171.5 81 187.1 108 171.5 108 140.3 81 124.7"/>
  <path class="cls-1" d="M679.6,187.1H662.9V155.9h5.6v26.7h11.1v4.5Z"/>
  <path class="cls-1" d="M700.5,187.1H683.8V155.9h16.7v4.5H689.4v8h8.4v4.5h-8.4v9.8h11.1Z"/>
  <path class="cls-1" d="M724.8,187.1h-4.9l-9-20.4v20.4h-5.6V155.9h6l7.9,18.3V155.9h5.6Z"/>
  <path class="cls-1"
        d="M747.2,173.3c1.8,1.4,2.7,2.9,2.7,4.7v4.6c0,2.4-2.5,4.5-5.6,4.5H736c-3.1,0-5.6-2-5.6-4.5v-4.5H736v4.5h8.4v-5.2l-11.2-9c-1.8-1.4-2.7-2.9-2.7-4.7v-3.4c0-2.4,2.5-4.5,5.6-4.5h8.4c3.1,0,5.6,2,5.6,4.5v4.5h-5.6v-4.5H736v4Z"/>
</svg>