<svg enable-background="new 0 0 351 346" viewBox="0 0 351 346" xmlns="http://www.w3.org/2000/svg"><g fill="#58606b"><path d="m43.8 296.9c0-2.8 0-.8 0 0z"/><path d="m307.4 299.1c0-.8 0-5.4 0 0z"/><path d="m307.1 293.5c-1.3-81.6-11.9-104.8-93.5-119.5 0 0-11.5 14.7-38.2 14.7s-38.2-14.7-38.2-14.7c-80.6 14.6-91.9 37.5-93.4 116.9-.1 6.5-.3 6.8-.3 6.1v8.6s19.4 39.1 131.9 39.1c112.4 0 131.9-39.1 131.9-39.1 0-2.9 0-4.9 0-6.3.1.4-.1-.7-.2-5.8z"/><path d="m175.3 1.4-72.4 42v82.8l72.4 42.9 73.3-42.9v-82.8z"/></g></svg>