<svg enable-background="new 0 0 24 24" viewBox="0 0 24 24" xmlns="http://www.w3.org/2000/svg"><path d="m3.1 9.3c.1.4.3.7.4 1.1l-.5.6c-.2.2-.2.5 0 .7l1 1c.2.2.5.2.7 0l.7-.5c.3.2.7.4 1.1.5l.1.9c0 .3.3.5.6.5h1.3c.2-.1.5-.3.5-.6l.1-.8c.4-.1.8-.3 1.2-.5l.7.5c.2.2.5.2.7 0l.9-.9c.2-.2.2-.5 0-.7l-.5-.6c.2-.4.4-.8.5-1.2l.8-.1c.3 0 .5-.3.5-.6v-1.4c0-.3-.2-.5-.5-.6l-.8-.1c-.1-.4-.3-.8-.5-1.1l.5-.6c.2-.2.2-.5 0-.7l-.9-.9c-.2-.2-.5-.2-.7 0l-.6.5c-.4-.3-.8-.5-1.3-.6v-.7c0-.3-.3-.5-.6-.5h-1.3c-.3 0-.5.2-.6.5v.7c-.5.1-.9.3-1.3.5l-.6-.4c-.2-.2-.5-.2-.7 0l-.9.9c-.2.2-.3.5-.1.8l.5.6c-.2.4-.3.8-.4 1.2h-.9c-.2.1-.4.3-.4.6v1.3c0 .3.2.5.5.6zm4.8-3.6c1.2 0 2.2 1 2.2 2.2s-1 2.2-2.2 2.2-2.2-1-2.2-2.2 1-2.2 2.2-2.2z"/><path d="m20.8 9.6-.7-.6c-.2-.2-.5-.2-.7 0l-.4.4c-.3-.2-.7-.3-1-.3l-.1-.5c-.1-.3-.3-.5-.6-.4l-.9.1c-.3 0-.5.3-.5.5v.5c-.3.1-.7.3-1 .5l-.5-.3c-.2-.2-.5-.1-.7.1l-.6.7c-.2.2-.2.5 0 .7l.4.4c-.1.3-.2.6-.3 1l-.6.1c-.3.1-.5.3-.4.6l.1.9c0 .3.3.5.5.5h.6c.1.3.3.6.4.8l-.3.5c-.2.2-.1.5.1.7l.7.6c.2.2.5.2.7 0l.5-.4.9.3.1.6c.1.3.3.5.6.4l.9-.1c.3 0 .5-.3.5-.5v-.6c.3-.1.6-.3.9-.5l.5.3c.2.2.5.1.7-.1l.6-.7c.2-.2.2-.5 0-.7l-.4-.4c.1-.3.3-.6.3-1l.5-.1c.3-.1.5-.3.4-.6l-.1-.9c0-.3-.3-.5-.5-.5h-.6c-.1-.3-.3-.6-.5-.9l.3-.5c.5-.1.4-.4.2-.6zm-3.4 5.2c-1 .1-1.8-.6-1.9-1.6s.6-1.8 1.6-1.9 1.8.6 1.9 1.6-.6 1.8-1.6 1.9z"/><path d="m6.3 17.2c-.3 0-.5.3-.5.5v.6c0 .3.2.5.5.6l.4.1c.1.2.2.5.3.7l-.3.3c-.2.2-.2.5 0 .7l.4.4c.2.2.5.2.7.1l.3-.3c.2.1.5.2.7.3v.4c0 .3.3.5.5.5h.6c.3 0 .5-.2.6-.5l.1-.4c.3-.1.5-.2.8-.3l.3.2c.2.2.5.2.7 0l.4-.4c.2-.2.2-.5.1-.7l-.2-.3c.1-.2.3-.5.3-.8h.4c.3 0 .5-.3.5-.5v-.6c0-.3-.2-.5-.5-.6h-.4c-.1-.3-.2-.5-.3-.8l.2-.3c.2-.2.2-.5 0-.7l-.4-.4c-.2-.2-.5-.2-.7-.1l-.3.2c-.3-.2-.5-.3-.8-.3v-.3c0-.3-.3-.5-.5-.5h-.6c-.3 0-.5.2-.6.5v.3c-.3.1-.6.2-.8.3l-.3-.1c-.2-.2-.5-.2-.7 0l-.4.4c-.2.2-.2.5-.1.7l.3.3c-.1.2-.2.5-.3.8zm3.6-.6c.8 0 1.4.7 1.4 1.5s-.7 1.4-1.5 1.4-1.4-.7-1.4-1.5.7-1.4 1.5-1.4z"/></svg>