<svg xmlns="http://www.w3.org/2000/svg" viewBox="0 0 497.43 228.97">
<defs><style>.cls-1{fill:#3f90ce;}</style></defs>
<title>Lens logo</title>
<g>
  <path class="cls-1" d="M0,0H12.25V170H110v11.64H0Z"/>
  <path class="cls-1" d="M138.75,167.24Q122.82,148,122.82,116.39t15.93-50.84q15.93-19,42.27-19T223.29,64q15.92,17.46,15.93,46.55v5.82H135.08q0,26.65,12.55,42.58T181,174.9a50.14,50.14,0,0,0,28.18-8.27A44.23,44.23,0,0,0,227,144.27h12.25q-3.08,18.07-19.61,30T181,186.23Q154.68,186.23,138.75,167.24ZM227,104.75v-4.59a46.49,46.49,0,0,0-14.71-30.63A45.05,45.05,0,0,0,181,57.28a43.4,43.4,0,0,0-30.94,12.56,47.58,47.58,0,0,0-15,31.54v3.37Z"/>
  <path class="cls-1" d="M268,181.64V51.15h12.25V73.21a41.83,41.83,0,0,1,16.85-18.38,46.6,46.6,0,0,1,25.12-7q19.29,0,32.77,12.56Q368.79,73.21,368.78,91v90.67H356.53V91a30.37,30.37,0,0,0-10.11-23,34.12,34.12,0,0,0-24.19-9.5A40.35,40.35,0,0,0,295,68.92a45.21,45.21,0,0,0-14.7,26.65v86.07Z"/>
  <path class="cls-1" d="M409.83,172.75Q395.12,160.51,395.12,143h11.34q0,13.17,11.33,22.67,11.32,9.18,27.26,9.19,18.38,0,29.71-8.27a27,27,0,0,0,11-22.36q0-10.41-11.64-17.77-11.64-7-31.24-8.88-20.84-1.84-33.08-11.64-12.57-9.8-12.56-24.2,0-16.23,12.56-25.11t35.22-8.89q21.75,0,34.61,9.5,13.17,9.5,13.17,25.42H481.19A28.06,28.06,0,0,0,469.55,64q-9.49-6.73-24.5-6.74-16.55,0-26.34,6.74t-9.8,17.76q0,10.43,11.94,17.77,11.64,7,31.25,8.88,20.5,1.84,33.08,12.25,12.24,10.42,12.25,26,0,17.46-14.4,27.87Q468.95,185,445.05,185,424.22,185,409.83,172.75Z"/>
</g>
</svg>
