<svg height="24" viewBox="0 0 24 24" width="24" xmlns="http://www.w3.org/2000/svg"><g fill="#879199"><path d="m13.27 10.74a3.37 3.37 0 0 0 1.45.32 3.41 3.41 0 1 0 0-6.83 3.47 3.47 0 0 0 -1.45.32 4.9 4.9 0 0 1 .73 1.45 5 5 0 0 1 0 3.29 4.82 4.82 0 0 1 -.78 1.45z"/><path d="m14.12 12.72a8.05 8.05 0 0 1 1.63 1.72 7.82 7.82 0 0 1 1.37 3.69 7.73 7.73 0 0 1 0 .82 2.45 2.45 0 0 1 -.14.82h3.13a.82.82 0 0 0 .82-.82 6.26 6.26 0 0 0 -6.25-6.25h-.6z"/><path d="m9.28 11.06a3.42 3.42 0 0 0 2.72-1.35 3.38 3.38 0 0 0 .69-2.06 3.41 3.41 0 1 0 -3.41 3.41z"/><path d="m3.85 19.76h10.87a.82.82 0 0 0 .82-.82 6.45 6.45 0 0 0 -.05-.82 6.24 6.24 0 0 0 -1.85-3.67 6.43 6.43 0 0 0 -1.64-1.14 6.25 6.25 0 0 0 -9 5.63.81.81 0 0 0 .82.82z"/></g></svg>