<svg xmlns="http://www.w3.org/2000/svg" width="24" height="24" viewBox="0 0 24 24">
<path d="m12 7.47 4.25-2.47-4.25-2.44-4.25 2.44z"/><path d="m11.66 8.06-4.25-2.46v4.91l4.25 2.49z"/><path d="m12.34 8.06v4.94l4.25-2.45v-4.95z"/><path d="m16.93 15.94 4.26-2.45-4.26-2.49-4.25 2.45z"/><path d="m16.59 16.53-4.25-2.45v4.92l4.25 2.46z"/><path d="m17.26 16.53v4.91l4.26-2.44v-4.93z"/><path d="m7.07 15.94 4.25-2.45-4.25-2.49-4.25 2.49z"/><path d="m6.74 16.53-4.26-2.46v4.93l4.26 2.46z"/><path d="m7.41 16.53v4.91l4.25-2.44v-4.93z"/></svg>