<?xml version="1.0" encoding="utf-8"?>
<!-- Generator: Adobe Illustrator 21.1.0, SVG Export Plug-In . SVG Version: 6.00 Build 0)  -->
<svg version="1.1" id="Layer_1" xmlns="http://www.w3.org/2000/svg" xmlns:xlink="http://www.w3.org/1999/xlink" x="0px" y="0px"
	 viewBox="0 0 1303.8 737.4" style="enable-background:new 0 0 1303.8 737.4;" xml:space="preserve">
<style type="text/css">
	.st0{clip-path:url(#SVGID_2_);}
	.st1{fill:#393C40;}
	.st2{fill:none;stroke:#393C40;stroke-width:2;stroke-linecap:round;stroke-linejoin:round;stroke-dasharray:9.54,9.54;}
	.st3{fill:none;stroke:#393C40;stroke-width:2;stroke-linecap:round;stroke-linejoin:round;stroke-dasharray:10.35,10.35;}
	.st4{fill:none;stroke:#393C40;stroke-width:2;stroke-linecap:round;stroke-linejoin:round;stroke-dasharray:9.06,9.06;}
	.st5{fill:none;stroke:#393C40;stroke-width:2;stroke-linecap:round;stroke-linejoin:round;stroke-dasharray:12.67,12.67;}
	.st6{fill:none;stroke:#393C40;stroke-width:2;stroke-linecap:round;stroke-linejoin:round;stroke-dasharray:12.81,12.81;}
	.st7{fill:none;stroke:#393C40;stroke-width:2;stroke-linecap:round;stroke-linejoin:round;stroke-dasharray:10.4,10.4;}
	.st8{fill:none;stroke:#393C40;stroke-width:2;stroke-linecap:round;stroke-linejoin:round;stroke-dasharray:9.25,9.25;}
	.st9{fill:none;stroke:#393C40;stroke-width:2;stroke-linecap:round;stroke-linejoin:round;stroke-dasharray:9.55,9.55;}
	.st10{fill:none;stroke:#393C40;stroke-width:2;stroke-linecap:round;stroke-linejoin:round;stroke-dasharray:9.66,9.66;}
	.st11{fill:none;stroke:#393C40;stroke-width:2;stroke-linecap:round;stroke-linejoin:round;stroke-dasharray:10.37,10.37;}
	.st12{fill:none;stroke:#393C40;stroke-width:2;stroke-linecap:round;stroke-linejoin:round;stroke-dasharray:10,10;}
	.st13{fill:none;stroke:#393C40;stroke-width:2;stroke-linecap:round;stroke-linejoin:round;stroke-dasharray:11.37,11.37;}
	.st14{clip-path:url(#SVGID_4_);}
	.st15{fill:#2E3136;}
	.st16{clip-path:url(#SVGID_6_);}
	.st17{clip-path:url(#SVGID_8_);}
</style>
<title>Artboard 1</title>
<g>
	<defs>
		<rect id="SVGID_1_" width="1303.8" height="737.4"/>
	</defs>
	<clipPath id="SVGID_2_">
		<use xlink:href="#SVGID_1_"  style="overflow:visible;"/>
	</clipPath>
	<g class="st0">
		<path class="st1" d="M715.5,222.6c0.2-6.2-4-12.2-9.6-15V190c-2.1,1.9-4.9,3-7.8,3c-1.8,0-3.6-0.5-5.2-1.4v15.9
			c-5.6,2.6-9.3,8.2-9.6,14.4c-0.1,2.7,0.6,5.5,1.8,7.9c-0.1-0.8-0.2-1.7-0.2-2.5c0.2-7.8,7.1-14.5,14.7-14.2s14.4,7.4,14.2,14.9
			c0,0.4,0,0.8-0.1,1.2C714.8,227.2,715.4,225,715.5,222.6"/>
	</g>
</g>
<line class="st2" x1="870.3" y1="376.4" x2="870.3" y2="519.5"/>
<line class="st3" x1="936.8" y1="407.1" x2="936.8" y2="562.4"/>
<line class="st4" x1="1034.7" y1="581.8" x2="1034.7" y2="627.1"/>
<line class="st5" x1="967.1" y1="547" x2="967.1" y2="585"/>
<line class="st6" x1="1104.2" y1="542.4" x2="1104.2" y2="580.8"/>
<line class="st7" x1="1036.7" y1="279.6" x2="1036.7" y2="435.6"/>
<line class="st8" x1="1106.2" y1="240.8" x2="1106.2" y2="361"/>
<line class="st9" x1="1204" y1="436.5" x2="1204" y2="522.4"/>
<line class="st10" x1="1134.5" y1="475.5" x2="1134.5" y2="562.4"/>
<line class="st11" x1="1064.9" y1="436.5" x2="1064.9" y2="467.6"/>
<line class="st12" x1="1006.4" y1="370.6" x2="1006.4" y2="460.6"/>
<line class="st13" x1="965.1" y1="240.8" x2="965.1" y2="297.6"/>
<g>
	<defs>
		<rect id="SVGID_3_" width="1303.8" height="737.4"/>
	</defs>
	<clipPath id="SVGID_4_">
		<use xlink:href="#SVGID_3_"  style="overflow:visible;"/>
	</clipPath>
	<g class="st14">
		<path class="st15" d="M773.7,590.9c-8.2-4.8-8.2-12.5,0-17.3L823,545c8.2-4.8,21.7-4.8,30,0l49.4,28.6c8.2,4.8,8.2,12.5,0,17.3
			L853,619.5c-8.2,4.8-21.7,4.8-30,0L773.7,590.9z"/>
		<path class="st15" d="M921.8,676.7c8.2,4.8,21.7,4.8,30,0l49.4-28.6c8.2-4.8,8.2-12.5,0-17.3l-49.4-28.6c-8.2-4.8-21.7-4.8-30,0
			l-49.4,28.6c-8.2,4.8-8.2,12.5,0,17.3L921.8,676.7z"/>
		<path class="st15" d="M1020.7,733.8c8.2,4.8,21.7,4.8,30,0l49.3-28.6c8.2-4.8,8.2-12.5,0-17.3l-49.4-28.6c-8.2-4.8-21.7-4.8-30,0
			l-49.4,28.6c-8.2,4.8-8.2,12.5,0,17.3L1020.7,733.8z"/>
		<path class="st15" d="M1119.5,676.7c8.2,4.8,21.7,4.8,30,0l49.4-28.6c8.2-4.8,8.2-12.5,0-17.3l-49.4-28.6c-8.2-4.8-21.7-4.8-30,0
			l-49.4,28.6c-8.2,4.8-8.2,12.5,0,17.3L1119.5,676.7z"/>
		<path class="st15" d="M1248.3,545.1c-8.2-4.8-21.7-4.8-30,0l-49.4,28.6c-8.2,4.8-8.2,12.5,0,17.3l49.4,28.6c8.2,4.8,21.7,4.8,30,0
			l49.4-28.5c8.2-4.8,8.2-12.5,0-17.3L1248.3,545.1z"/>
		<path class="st15" d="M942.8,369.3c-3.5,2.3-5.7,6-5.9,10.2V391c0,3.7-2.7,5.2-6,3.4l-51.6-29.2c-3.5-2.2-5.7-6-6-10.1v-22.7
			l1.1-0.6c0.6-0.3,3.8,0.9,7,2.7l48.6,27.3c3.7,1.8,8.1,1.8,11.9,0l49.1-28.3c3.3-1.9,6.7-3.1,7.7-2.8c1.1,0.5,1.8,1.6,1.8,2.8
			c0,1.2-2.6,3.7-5.9,5.6L942.8,369.3z M942.8,292.3c-3.7-1.9-8.1-1.9-11.8,0l-58.7,33.9c-3.5,2.2-5.7,6-5.9,10.1v22.9
			c0.2,4.1,2.5,7.9,6,10.1l58.7,33.2c3.7,1.9,8.1,1.9,11.9,0l58.7-33.2c3.5-2.2,5.7-6,6-10.1v-22.8c-0.2-4.1-2.4-7.9-5.9-10.1
			L942.8,292.3z"/>
		<path class="st15" d="M1140.4,437.4c-3.5,2.3-5.7,6-5.9,10.2v11.6c0,3.7-2.7,5.2-5.9,3.4l-51.6-29.2c-3.5-2.2-5.7-6-5.9-10.1
			v-22.8l1.1-0.6c0.6-0.3,3.8,0.9,7,2.7l48.5,27.3c3.7,1.9,8.1,1.9,11.9,0l49.2-28.3c3.3-1.9,6.7-3.1,7.7-2.8
			c1.1,0.5,1.8,1.6,1.8,2.8c0,1.2-2.6,3.7-5.9,5.6L1140.4,437.4z M1140.4,360.4c-3.7-1.9-8.1-1.9-11.8,0l-58.7,33.9
			c-3.5,2.2-5.7,6-5.9,10.1v22.9c0.2,4.1,2.5,7.9,5.9,10.1l58.7,33.2c3.7,1.9,8.1,1.9,11.9,0l58.7-33.2c3.5-2.2,5.7-6,5.9-10.1
			v-22.9c-0.2-4.1-2.4-7.9-5.9-10.1L1140.4,360.4z"/>
		<path class="st15" d="M1041.6,241c-3.5,2.3-5.7,6-5.9,10.2v11.6c0,3.7-2.7,5.2-5.9,3.4L978.1,237c-3.5-2.2-5.7-6-6-10.1v-22.8
			l1.1-0.6c0.6-0.3,3.8,0.9,7,2.7l48.5,27.3c3.7,1.9,8.1,1.9,11.9,0l49.2-28.3c3.3-1.9,6.7-3.1,7.7-2.8c1.1,0.5,1.8,1.6,1.8,2.8
			c0,1.2-2.6,3.7-5.9,5.6L1041.6,241z M1041.6,164c-3.7-1.9-8.1-1.9-11.8,0L971,197.9c-3.5,2.2-5.7,6-5.9,10.1v22.8
			c0.2,4.1,2.5,7.9,6,10.1l58.7,33.2c3.7,1.9,8.1,1.9,11.9,0l58.7-33.2c3.5-2.2,5.7-6,5.9-10.1v-22.8c-0.2-4.1-2.4-7.9-5.9-10.1
			L1041.6,164z"/>
		<path class="st15" d="M1041.6,538.7c-3.5,2.3-5.7,6-5.9,10.2v11.6c0,3.7-2.7,5.2-5.9,3.4l-51.6-29.2c-3.5-2.2-5.7-6-6-10.1v-22.8
			l1.1-0.6c0.6-0.3,3.8,0.9,7,2.7l48.5,27.3c3.7,1.8,8.1,1.8,11.9,0l49.2-28.3c3.3-1.9,6.7-3.1,7.7-2.8c1.1,0.5,1.8,1.6,1.8,2.8
			c0,1.2-2.6,3.7-5.9,5.6L1041.6,538.7z M1041.6,461.7c-3.7-1.9-8.1-1.9-11.8,0L971,495.6c-3.5,2.2-5.7,6-5.9,10.1v22.9
			c0.2,4.1,2.5,7.9,6,10.1l58.7,33.2c3.7,1.9,8.1,1.9,11.9,0l58.7-33.2c3.5-2.2,5.7-6,5.9-10.1v-22.9c-0.2-4.1-2.4-7.9-5.9-10.1
			L1041.6,461.7z"/>
		<path class="st1" d="M582.5,50.3l-0.1-0.1L582.5,50.3 M396.4,166.1c-6.8,6.8-6.1,10.1,2.8,13.7c10.5,4.3,17.5,12,21.7,22.5
			c2.9,7.2,6.9,8.1,12.4,2.6c16-15.9,26.1-26,42.2-41.8c3.9-4,8.2-9.3,8.9-16c1.4-10.3,5-17,9-21c19.1-19,27.1-27.7,40.5-41.3
			c1.6-1.7,2.5-4.1,2.4-6.5c-1.6-10.5,1.7-18.2,10.5-23.3c8.2-4.7,16.9-4,24.6,2.1c0.3,0.2,1.7,1.7,1.8,1.9c0,0,0.2,0.1,4.4-4.1
			l4.8-4.8c-3.1-3.1-22.3-22.2-24.7-24.4c-4.9-4.7-3.9-4.7-4.9-3.7L527,47.2c0,0-3.8,3.8-9.6-1.9C517.8,45,436.3,126.2,396.4,166.1"
			/>
		<path class="st1" d="M180.6,384c0,0.3,0,0.6,0,0.9C180.6,384.5,180.6,384.2,180.6,384 M362.3,256.2c-10.5-4.3-17.5-12-21.7-22.5
			c-2.9-7.2-6.9-8.1-12.4-2.6c-16,15.9-31.8,32-47.9,47.8c-3.2,3.2-4.9,6.3-4,10.7c1.8,8.8-1.6,15.1-8.1,21.2
			c-12,11.2-22.9,22.5-34.4,34.3c11.9,4,22.6,15.8,27,29l104.2-104.2C372,263,371.2,259.8,362.3,256.2"/>
		<path class="st1" d="M616.5,60.2c-0.2,0.2-0.3,0.4-0.3,0.6C616.2,60.6,616.3,60.4,616.5,60.2 M616.2,60.9c0,0,0,0.1,0,0.1
			C616.1,61,616.1,60.9,616.2,60.9 M616.5,61.6c0.1,0.1,0.1,0.1,0.2,0.2C616.6,61.7,616.5,61.7,616.5,61.6 M626.9,61.2
			c-0.1-3.3-2.6-6-5.9-6.2c-3.3,0-6,2.6-6.1,5.9c-0.1,3.3,2.5,6,5.8,6.2C624,67,626.7,64.5,626.9,61.2"/>
		<path class="st1" d="M575.9,72.3c-0.1-10.5-8.7-18.9-19.2-18.8s-18.9,8.7-18.8,19.2c0,10.5,9,19.4,19.2,19.2
			C567.8,91.7,576.1,82.9,575.9,72.3"/>
		<path class="st1" d="M188.9,482h-53c-12,0-12-12-12-12v-71c0,82,65,82.8,65,82.8C200.9,482,188.9,482,188.9,482 M223.2,483v-46
			c0-6-6-6.3-6-6.3c-11.7-0.9-22.6-6.1-30.7-14.5c-10-10.7-11.2-24.1-10.8-32.4c0.3-6-5.7-6-5.7-6h-47c-6,0-6,6-6,6V483c0,6,6,6,6,6
			h94.2C223.2,489,223.2,483,223.2,483"/>
		<path class="st1" d="M2.2,363.7c0,0-0.6-1.2-0.8-1.1l-1,0.4c0,0-0.3,0.1-0.3-5.9v-24.4c0,0,0-6,2.4-6s11.8-0.4,16.2-0.4
			c11,0,13.1,2.1,13.1,13.2c0,12.6,0,25.2,0,32.2c0,0,0,6,3.8,5.7s4.8,3.7,4.8,9.5c-0.2,27.7-0.2,55.4,0,83.1c0,6.2,0.2,12-4.2,11.8
			c0,0-4.4-0.1-4.4,5.9c0,7.9,0.1,21.2,0,34.5c0,6.5-2.9,10.1-8.9,10.4s-16.8,0.4-19.9,0.4c0,0-3.1,0-3.1-6v-24.6c0,0,0-6,0.3-5.9
			l1.2,0.3c0,0,0.3,0.1,0.8-1.1s2.5-3.7,2.5-6.1c0.2-40,0.2-79.9,0-119.9C5,367.5,2.9,365,2.2,363.7"/>
		<path class="st1" d="M114.9,469.9l-1.5,1.2c0,0-0.3,0.2-0.8-0.5s-2.3-2.1-2.3-3.5c-0.2-23.2-0.2-46.4,0-69.6c0-1.3,2-2.6,2.5-3.2
			c0,0,0.5-0.6,0.8-0.5l1.3,0.9 M44.9,432.6c0-15.2,0.1-30.5,0-45.8c0-5.4,2.1-7.9,7.6-7.8c10.5,0.2,37.1,0.1,47.6,0
			c5.4-0.1,7.9,2.2,7.9,7.6c-0.1,30.5-0.1,61,0,91.5c0,5.3-2.2,8-7.7,7.9c-10.3-0.1-36.7-0.1-47,0c-5.8,0.1-8.6-2.3-8.5-8.4
			C45,462.6,44.8,447.6,44.9,432.6"/>
		<path class="st1" d="M218.4,427.1c-24.7-0.2-40.3-21.7-39.5-41.9c1-24.1,19.7-40.8,43.9-39.6c21.8,1.1,38.3,20.9,37,44.4
			C258.6,410.9,239.4,428.2,218.4,427.1"/>
		<path class="st15" d="M692.1,363.5c4.6,2.3,10,2.2,14.5-0.1l60.3-34.7c4-2.3,8.2-3.8,9.4-3.4c1.1,0.5,1.9,1.5,2.2,2.7
			c0,0,0,0.7,0,1.4s-3.2,3.8-7.2,6.1l-63.5,37.1c-4,2.3-7.2,7.9-7.2,12.5v14.2c0,4.5-3.3,6.4-7.3,4.1L630,367.7
			c-4-2.3-7.3-7.8-7.3-12.4v-27.9c0,0,0,0,0.3-0.2l1-0.6c0.7-0.4,4.6,1.1,8.6,3.3L692.1,363.5z M693.3,278.3l-72,41.5
			c-4.1,2.7-6.7,7.1-7.2,11.9l1.7,0.2c1.2,0.2,2,1.3,1.9,2.5v8c0,0,0,1.1-3.7,2.8v14.9c0,4.5,3.3,10.1,7.3,12.4l71.9,40.7
			c4.6,2.3,10,2.3,14.6,0l71.9-40.7c4-2.3,7.3-7.8,7.3-12.4v-12c-0.3-0.1-0.6-0.1-0.8-0.2c-8.1-2.7-8.1-4.6-8.1-4.6v-8
			c-0.1-1.2,0.7-2.3,1.9-2.5l7-1c-0.4-4.9-3.1-9.4-7.2-12.1l-72-41.5C703.2,276,697.9,276,693.3,278.3"/>
		<path class="st1" d="M487.8,147L487.8,147l35.2-36.8l-5.1-4.9l-23,23.7C494.9,129,488.9,135,487.8,147"/>
		<path class="st1" d="M519.9,43.1L519.9,43.1L563.6,0l5.3,5.2l-14,14.4l-1.3-1.3l-27.2,26.1C526.4,44.5,523.8,47.1,519.9,43.1"/>
		<path class="st1" d="M631.5,61.3l-7.1,7.1c0,0-4.2,4.2,0,8.5l62.5,62.6c0,0,4.2,4.2,8.5,0l2.8-2.8c0,0,4.2-4.2,0-8.5L631.5,61.3z"
			/>
		<path class="st1" d="M709.3,166.1L594.9,51.7c0,0-4.2-4.2-8.5,0l-2.8,2.8c0,0-4.2,4.2,0,8.5l24.1,24.1l-11.6,11.6
			c0,0-4.2,4.2,0,8.5l86,86c0,0,4.2,4.2,8.5,0l1.9-1.9c-3.5-2.2-5.6-6-5.5-10.1c0.2-6.2,5.7-11.5,11.6-11.2c3.9,0.3,7.4,2.4,9.5,5.7
			l1.2-1.2C709.3,174.5,713.5,170.3,709.3,166.1 M690.2,182.8c-0.1-0.1-0.2-0.2-0.3-0.3L690.2,182.8 M690.4,183l-0.1-0.1L690.4,183
			 M689.4,181c0.1-0.4,0.3-0.8,0.7-1.1C689.7,180.2,689.4,180.6,689.4,181"/>
		<path class="st1" d="M708.4,138.2c0,0-4.2-4.2-8.5,0L697,141c0,0-4.2,4.2,0,8.5l14,13.9L708.4,138.2z"/>
		<path class="st1" d="M693,228.7c0.1-0.3,0.2-0.6,0.5-0.8C693.2,228.1,693.1,228.4,693,228.7 M693.7,230c-0.1-0.1-0.2-0.2-0.3-0.3
			C693.5,229.8,693.6,229.9,693.7,230 M707.3,229.2c-0.3,4.3-3.9,7.7-8.2,7.8c-4.4-0.2-7.8-3.8-7.7-8.2c0.2-4.4,3.7-7.8,8.1-7.8
			C703.8,221.3,707.2,224.9,707.3,229.2 M690.5,227.4c-0.3,0.3-0.6,0.7-0.7,1.1C689.9,228,690.2,227.6,690.5,227.4 M724.9,239v-3
			c0,0,0-5-5-5h-8.8c0.1-0.5,0.2-1.1,0.2-1.6c0.2-6.2-5.4-12.1-11.7-12.4s-12,5.3-12.2,11.7c0,0.8,0,1.5,0.2,2.3h-8.7c0,0-5,0-5,5v3
			c0,0,0,5,5,5h41C719.9,244,724.9,244,724.9,239"/>
		<path class="st1" d="M707.7,181.8c-0.1-5-4-9.1-9-9.5c-4.8-0.2-9.2,4.1-9.4,9c-0.1,5.1,3.8,9.3,8.9,9.4
			C703.2,190.6,707.4,186.7,707.7,181.8"/>
	</g>
</g>
<polygon class="st1" points="570.8,7.1 570.8,7.1 568.9,9 615.4,55.5 617.3,53.6 "/>
<g>
	<defs>
		<rect id="SVGID_5_" width="1303.8" height="737.4"/>
	</defs>
	<clipPath id="SVGID_6_">
		<use xlink:href="#SVGID_5_"  style="overflow:visible;"/>
	</clipPath>
	<g class="st16">
		<path class="st1" d="M586.1,44.3l-25.1-25.1c-0.4-0.4-1-0.4-1.4,0c0,0-0.1,0.1-0.1,0.1l-1.8,1.8c-0.1,0.1-0.1,0.2-0.2,0.3
			L583.9,48l0.1-0.1l0,0c0.1-0.1,0.2-0.1,0.3-0.2l1.7-1.9C586,45.8,586.8,45,586.1,44.3"/>
	</g>
</g>
<polygon class="st1" points="540.7,88.9 540.7,88.9 538.8,87 521,105.1 522.9,107 "/>
<g>
	<defs>
		<rect id="SVGID_7_" width="1303.8" height="737.4"/>
	</defs>
	<clipPath id="SVGID_8_">
		<use xlink:href="#SVGID_7_"  style="overflow:visible;"/>
	</clipPath>
	<g class="st17">
		<path class="st1" d="M1123.8,193.5c0.3,0.3,0.1,0.5-0.2,0.7c-2.5,1.6-5,3.1-7.4,4.8c-2,1.3-3.6,3-4.7,5.1
			c-0.8,1.6-0.7,3.6,0.3,5.2c1.3,2,3,3.7,5.1,5c2.2,1.5,4.5,2.9,6.7,4.3c0.3,0.2,0.5,0.3,0.2,0.6c-1.7-0.9-3.4-1.9-5.1-2.7
			c-2.1-1.1-4.3-2-6.6-2.6c-1.8-0.6-3.7-0.5-5.4,0.2c-1.3,0.7-2.4,2-2.8,3.4c-0.7,1.8-1.1,3.6-1.2,5.5c-0.3,2.8-0.4,5.7-0.3,8.5
			c0,0.1,0,0.2,0,0.2h-0.6c0-0.2,0-0.3,0-0.5c-0.1-2.3-0.1-4.6-0.3-6.9c-0.1-2.5-0.6-4.9-1.5-7.2c-0.6-1.9-2.2-3.3-4.2-3.6
			c-1.4-0.2-2.8-0.1-4.1,0.4c-1.8,0.6-3.5,1.2-5.2,2c-2.1,1-4.2,2.1-6.3,3.2l-0.2-0.3c0.1-0.1,0.3-0.2,0.4-0.3
			c2.5-1.6,5-3.1,7.4-4.9c1.9-1.3,3.5-3,4.6-5c0.9-1.7,0.7-3.7-0.3-5.2c-1.3-2-3-3.7-5-4.9c-2.2-1.5-4.5-2.9-6.7-4.3
			c-0.3-0.2-0.5-0.3-0.2-0.6c1.8,1,3.6,2,5.4,2.9c2.2,1.1,4.4,2,6.8,2.6c1.3,0.3,2.6,0.4,3.9,0.1c1.7-0.5,3-1.7,3.6-3.3
			c0.8-1.9,1.3-4,1.4-6.1c0.2-2.3,0.2-4.6,0.4-6.9c0-0.5,0.1-1,0.1-1.5c0-0.1,0.2-0.2,0.3-0.3l0.2,0.1c0,0.4,0,0.9,0,1.3
			c0,1.5,0,3,0.1,4.5c0.1,2.9,0.6,5.7,1.5,8.4c0.8,2,2,3.5,4.2,3.9c1.6,0.2,3.2,0.1,4.7-0.4c3.5-1.2,6.8-2.7,10-4.6L1123.8,193.5"/>
		<path class="st1" d="M654.9,259c-9,0-14-0.2-22,0c-5,0.1-17,0-17.8,1.1c-4.3,6.1-7.5,14.1-8,21.6c-1.1,17-0.4,34.2-0.4,51.8l8,1.1
			v8.6c-15.6,5.2-21.9-3.5-21.7-17.2c0.2-15.7-0.2-31.4,0.2-47.1c0.1-6.4,1.3-12.7,2.1-19.5c-7.4-0.6-5.1-6.6-4.5-12.4h89V259"/>
		<path class="st1" d="M731.9,259c9,0,27-0.2,35,0c5,0.1,12.2-0.6,14,2c4.3,6.2,7.5,13.4,8,20.8c1.1,17,0.4,34.2,0.4,51.8l-8,1.1
			v8.6c15.6,5.2,21.9-3.5,21.7-17.2c-0.2-15.7,0.2-31.4-0.2-47.1c-0.1-6.4-1.3-12.7-2.1-19.5c7.4-0.6,5.1-6.6,4.5-12.4h-89v12"/>
		<path class="st1" d="M275.1,286c-7.5,7.5-44.8,44.5-58.3,57.9c2.7-0.3,5.3-0.4,8-0.3c2.1,0.1,4.1,0.4,6.1,0.8
			c3.1-3.2,7-7.3,12.1-12.5c8.1-8.3,15.8-16.3,24.2-24.2c4.6-4.3,7-8.7,5.8-15C272.5,290.3,273.2,287.7,275.1,286 M275.8,285.2
			c-0.2,0.2-0.5,0.5-0.7,0.8C276.5,284.6,276.9,284.2,275.8,285.2"/>
		<path class="st1" d="M390.6,217c0,5.9-4.8,10.6-10.7,10.6c-5.9,0-10.6-4.8-10.6-10.7c0-5.8,4.7-10.5,10.4-10.6
			C385.7,206.3,390.5,211.1,390.6,217 M419,217c0-21.6-17.5-39.1-39.1-39.1s-39.1,17.5-39.1,39.1c0,21.6,17.5,39.1,39.1,39.1
			S419,238.6,419,217L419,217"/>
	</g>
</g>
</svg>
